<svg width="9" height="6" viewBox="0 0 9 6" fill="none" xmlns="http://www.w3.org/2000/svg">
<path fill-rule="evenodd" clip-rule="evenodd" d="M5.93332 0.527266C5.88994 0.545267 5.85053 0.571649 5.81736 0.604901C5.78411 0.638069 5.75773 0.677472 5.73973 0.720852C5.72173 0.764232 5.71246 0.810737 5.71246 0.857703C5.71246 0.90467 5.72173 0.951175 5.73973 0.994555C5.75773 1.03793 5.78411 1.07734 5.81736 1.11051L7.35047 2.64303H0.357065C0.262365 2.64303 0.171545 2.68065 0.104582 2.74761C0.0376193 2.81457 0 2.90539 0 3.00009C0 3.09479 0.0376193 3.18561 0.104582 3.25258C0.171545 3.31954 0.262365 3.35716 0.357065 3.35716H7.35047L5.81736 4.88968C5.75032 4.95673 5.71265 5.04766 5.71265 5.14248C5.71265 5.2373 5.75032 5.32824 5.81736 5.39529C5.88441 5.46233 5.97535 5.5 6.07017 5.5C6.16499 5.5 6.25592 5.46233 6.32297 5.39529L8.46536 3.2529C8.49861 3.21973 8.52499 3.18032 8.54299 3.13694C8.56099 3.09356 8.57026 3.04706 8.57026 3.00009C8.57026 2.95313 8.56099 2.90662 8.54299 2.86324C8.52499 2.81986 8.49861 2.78046 8.46536 2.74729L6.32297 0.604901C6.2898 0.571649 6.2504 0.545267 6.20702 0.527266C6.16364 0.509265 6.11713 0.5 6.07017 0.5C6.0232 0.5 5.9767 0.509265 5.93332 0.527266Z" fill="#353839"/>
</svg>
