<svg width="22" height="21" viewBox="0 0 22 21" fill="none" xmlns="http://www.w3.org/2000/svg">
<path fill-rule="evenodd" clip-rule="evenodd" d="M2.32884 2.39508C2.32884 1.07231 3.40115 0 4.72391 0H17.0096C18.3323 0 19.4046 1.07231 19.4046 2.39508V3.98952L21.4379 6.21161C21.7501 6.55275 21.8313 7.04609 21.6449 7.46927C21.4585 7.89246 21.0398 8.16561 20.5774 8.16561H1.16654C0.704593 8.16561 0.286165 7.89301 0.0995007 7.47046C-0.0871633 7.04791 -0.00689471 6.55501 0.304194 6.21352L2.32884 3.99101V2.39508ZM4.72391 2.33303C4.68965 2.33303 4.66187 2.36081 4.66187 2.39508V4.44269C4.66187 4.73329 4.5534 5.01343 4.35769 5.22826L3.80718 5.83258H17.9288L17.3775 5.23017C17.1807 5.01512 17.0716 4.73418 17.0716 4.44269V2.39508C17.0716 2.36081 17.0438 2.33303 17.0096 2.33303H4.72391Z" fill="white"/>
<path fill-rule="evenodd" clip-rule="evenodd" d="M2.67628 12.4001C3.32053 12.4001 3.8428 12.9224 3.8428 13.5667V18.6671H17.8906V13.5667C17.8906 12.9224 18.4129 12.4001 19.0571 12.4001C19.7014 12.4001 20.2236 12.9224 20.2236 13.5667V21.0001H1.50977V13.5667C1.50977 12.9224 2.03203 12.4001 2.67628 12.4001Z" fill="white"/>
<path fill-rule="evenodd" clip-rule="evenodd" d="M6.83362 17.4234C6.83362 15.4906 8.40042 13.9238 10.3332 13.9238H11.4004C13.3331 13.9238 14.8999 15.4906 14.8999 17.4234V20.4141H12.5669V17.4234C12.5669 16.7791 12.0446 16.2569 11.4004 16.2569H10.3332C9.68892 16.2569 9.16665 16.7791 9.16665 17.4234V20.4141H6.83362V17.4234Z" fill="white"/>
<path d="M6.77148 4.02573C6.77148 3.79956 6.95483 3.61621 7.18101 3.61621H14.5524C14.7786 3.61621 14.9619 3.79956 14.9619 4.02573C14.9619 4.2519 14.7786 4.43525 14.5524 4.43525H7.18101C6.95483 4.43525 6.77148 4.2519 6.77148 4.02573Z" fill="white"/>
<path fill-rule="evenodd" clip-rule="evenodd" d="M1.03821 6.14746C1.36034 6.14746 1.62147 6.40859 1.62147 6.73072V9.59737C1.62147 10.6323 2.46043 11.4712 3.49534 11.4712C4.53025 11.4712 5.36921 10.6323 5.36921 9.59737C5.36921 9.27524 5.63035 9.01411 5.95247 9.01411C6.27459 9.01411 6.53573 9.27524 6.53573 9.59737C6.53573 10.6323 7.37469 11.4712 8.4096 11.4712C9.44451 11.4712 10.2835 10.6323 10.2835 9.59737C10.2835 9.27524 10.5446 9.01411 10.8667 9.01411C11.1888 9.01411 11.45 9.27524 11.45 9.59737C11.45 10.6323 12.2889 11.4712 13.3239 11.4712C14.3588 11.4712 15.1977 10.6323 15.1977 9.59737C15.1977 9.27524 15.4589 9.01411 15.781 9.01411C16.1031 9.01411 16.3642 9.27524 16.3642 9.59737C16.3642 10.6323 17.2032 11.4712 18.2381 11.4712C19.273 11.4712 20.112 10.6323 20.112 9.59737V6.73072C20.112 6.40859 20.3731 6.14746 20.6952 6.14746C21.0174 6.14746 21.2785 6.40859 21.2785 6.73072V9.59737C21.2785 11.2765 19.9173 12.6378 18.2381 12.6378C17.2286 12.6378 16.334 12.1457 15.781 11.3884C15.228 12.1457 14.3334 12.6378 13.3239 12.6378C12.3143 12.6378 11.4197 12.1457 10.8667 11.3884C10.3138 12.1457 9.41914 12.6378 8.4096 12.6378C7.40006 12.6378 6.50544 12.1457 5.95247 11.3884C5.3995 12.1457 4.50488 12.6378 3.49534 12.6378C1.81618 12.6378 0.454956 11.2765 0.454956 9.59737V6.73072C0.454956 6.40859 0.716089 6.14746 1.03821 6.14746Z" fill="white"/>
</svg>
