<svg width="5" height="20" viewBox="0 0 5 20" fill="none" xmlns="http://www.w3.org/2000/svg">
<path fill-rule="evenodd" clip-rule="evenodd" d="M0.555555 17.7779C0.555555 18.3673 0.789681 18.9325 1.20643 19.3492C1.62318 19.766 2.18841 20.0001 2.77778 20.0001C3.36715 20.0001 3.93238 19.766 4.34913 19.3492C4.76587 18.9325 5 18.3673 5 17.7779C5 17.1885 4.76587 16.6233 4.34913 16.2065C3.93238 15.7898 3.36715 15.5557 2.77778 15.5557C2.18841 15.5557 1.62318 15.7898 1.20643 16.2065C0.789681 16.6233 0.555555 17.1885 0.555555 17.7779Z" fill="white"/>
<path fill-rule="evenodd" clip-rule="evenodd" d="M0.555555 10.0001C0.555555 10.5894 0.789681 11.1547 1.20643 11.5714C1.62318 11.9882 2.18841 12.2223 2.77778 12.2223C3.36715 12.2223 3.93238 11.9882 4.34913 11.5714C4.76587 11.1547 5 10.5894 5 10.0001C5 9.41068 4.76587 8.84545 4.34913 8.42871C3.93238 8.01196 3.36715 7.77783 2.77778 7.77783C2.18841 7.77783 1.62318 8.01196 1.20643 8.42871C0.789681 8.84545 0.555555 9.41068 0.555555 10.0001Z" fill="white"/>
<path fill-rule="evenodd" clip-rule="evenodd" d="M0.555555 2.22222C0.555555 2.81159 0.789681 3.37682 1.20643 3.79357C1.62318 4.21032 2.18841 4.44444 2.77778 4.44444C3.36715 4.44444 3.93238 4.21032 4.34913 3.79357C4.76587 3.37682 5 2.81159 5 2.22222C5 1.63285 4.76587 1.06762 4.34913 0.650874C3.93238 0.234126 3.36715 0 2.77778 0C2.18841 0 1.62318 0.234126 1.20643 0.650874C0.789681 1.06762 0.555555 1.63285 0.555555 2.22222Z" fill="white"/>
</svg>
