<svg width="25" height="22" viewBox="0 0 25 22" fill="none" xmlns="http://www.w3.org/2000/svg">
<path fill-rule="evenodd" clip-rule="evenodd" d="M19.7263 21.786C19.9087 21.6574 20.05 21.48 20.1333 21.275C20.2167 21.0699 20.2386 20.8456 20.1967 20.6287L19.0208 14.1128L23.8653 9.48341C24.0164 9.33496 24.1237 9.14879 24.1755 8.94489C24.2272 8.741 24.2216 8.52707 24.1593 8.32607C24.0911 8.12038 23.9657 7.93761 23.7974 7.7985C23.629 7.6594 23.4244 7.56952 23.2068 7.53908L16.5045 6.57848L13.5178 0.65287C13.4216 0.457197 13.2712 0.292174 13.0841 0.176708C12.8969 0.0612412 12.6805 0 12.4596 0C12.2387 0 12.0223 0.0612412 11.8351 0.176708C11.6479 0.292174 11.4976 0.457197 11.4013 0.65287L8.44996 6.59005L1.74763 7.55065C1.53001 7.58109 1.32542 7.67097 1.15707 7.81008C0.988715 7.94918 0.86335 8.13195 0.795198 8.33764C0.732814 8.53864 0.727216 8.75257 0.779004 8.95647C0.830793 9.16037 0.938014 9.34653 1.08916 9.49499L5.93364 14.1244L4.7578 20.6402C4.71932 20.8534 4.74238 21.073 4.82437 21.2739C4.90636 21.4749 5.04398 21.6492 5.22159 21.777C5.3992 21.9048 5.60967 21.9809 5.82908 21.9969C6.0485 22.0128 6.26805 21.9678 6.46278 21.867L12.4596 18.7769L18.4564 21.867C18.6238 21.9514 18.8092 21.9951 18.9973 21.9943C19.257 22.0061 19.5134 21.9329 19.7263 21.786ZM4.72959 9.59269L8.57264 13.2651L7.62462 18.5184L12.4596 16.027L17.3358 18.5397L16.3818 13.2535L20.2249 9.58111L14.8955 8.8173L12.4674 3.99978L10.0675 8.82765L4.72959 9.59269Z" fill="white"/>
</svg>
