<svg width="14" height="13" viewBox="0 0 14 13" fill="none" xmlns="http://www.w3.org/2000/svg">
<path d="M10.9123 12.4971L10.9001 12.4966L10.8879 12.4966C10.854 12.4968 10.8211 12.4891 10.7919 12.4748L7.21678 10.6501L6.98948 10.5341L6.76218 10.6501L3.18453 12.4761L3.18374 12.4765C3.14942 12.4941 3.10978 12.5023 3.06961 12.4994C3.02946 12.4966 2.99205 12.4828 2.96153 12.461C2.93113 12.4394 2.90926 12.4111 2.89669 12.3805C2.88416 12.3501 2.88083 12.3176 2.88656 12.2861L2.88656 12.2861L3.58806 8.43584L3.63662 8.16931L3.43986 7.98308L0.552948 5.25063C0.52882 5.22657 0.512884 5.19794 0.505274 5.16826C0.497901 5.13951 0.498254 5.10955 0.506363 5.08089C0.517062 5.05164 0.536125 5.02411 0.563169 5.00198C0.591713 4.97862 0.627731 4.96252 0.667448 4.95702L0.669095 4.95678L4.66764 4.38916L4.92682 4.35237L5.04424 4.1184L6.80501 0.610066L6.80501 0.610067L6.80591 0.608245C6.82087 0.578141 6.84516 0.550911 6.87763 0.531071C6.9102 0.511165 6.949 0.5 6.98948 0.5C7.02995 0.5 7.06875 0.511165 7.10133 0.531071C7.1338 0.550911 7.15808 0.578141 7.17304 0.608245L7.17302 0.608256L7.1752 0.61255L8.95701 4.11405L9.07493 4.34578L9.33236 4.38232L13.3309 4.94995L13.3326 4.95018C13.3723 4.95568 13.4083 4.97178 13.4368 4.99514C13.4639 5.01727 13.4829 5.04481 13.4936 5.07405C13.5017 5.10271 13.5021 5.13267 13.4947 5.16142C13.4871 5.1911 13.4712 5.21973 13.4471 5.24378L10.5601 7.97625L10.3634 8.16248L10.4119 8.429L11.1134 12.2793L11.1134 12.2793L11.1146 12.2855C11.1209 12.3175 11.1177 12.3508 11.105 12.3818C11.0925 12.4122 11.0707 12.4405 11.0405 12.4621C11.0041 12.4863 10.9591 12.4993 10.9123 12.4971Z" fill="white" stroke="#FFC315"/>
</svg>
