<svg width="28" height="20" viewBox="0 0 28 20" fill="none" xmlns="http://www.w3.org/2000/svg">
<path d="M15.7695 4.16311C15.7695 3.54933 16.2671 3.05176 16.8809 3.05176H26.8831C27.4969 3.05176 27.9944 3.54933 27.9944 4.16311C27.9944 4.7769 27.4969 5.27447 26.8831 5.27447H16.8809C16.2671 5.27447 15.7695 4.7769 15.7695 4.16311Z" fill="white"/>
<path d="M15.7695 18.8887C15.7695 18.2749 16.2671 17.7773 16.8809 17.7773H26.8831C27.4969 17.7773 27.9944 18.2749 27.9944 18.8887C27.9944 19.5025 27.4969 20.0001 26.8831 20.0001H16.8809C16.2671 20.0001 15.7695 19.5025 15.7695 18.8887Z" fill="white"/>
<path d="M15.7695 11.387C15.7695 10.7732 16.2671 10.2756 16.8809 10.2756H26.8831C27.4969 10.2756 27.9944 10.7732 27.9944 11.387C27.9944 12.0008 27.4969 12.4983 26.8831 12.4983H16.8809C16.2671 12.4983 15.7695 12.0008 15.7695 11.387Z" fill="white"/>
<path fill-rule="evenodd" clip-rule="evenodd" d="M0.210571 11.5258C0.210571 6.84574 4.00455 3.05176 8.68466 3.05176H11.3241C11.9379 3.05176 12.4355 3.54933 12.4355 4.16311C12.4355 4.7769 11.9379 5.27447 11.3241 5.27447H8.68466C5.23212 5.27447 2.43328 8.07331 2.43328 11.5258C2.43328 14.9784 5.23212 17.7772 8.68466 17.7772H11.3241C11.9379 17.7772 12.4355 18.2748 12.4355 18.8886C12.4355 19.5024 11.9379 19.9999 11.3241 19.9999H8.68466C4.00455 19.9999 0.210571 16.206 0.210571 11.5258Z" fill="white"/>
<path d="M8.77595 0.317452C9.20996 -0.105817 9.91363 -0.105817 10.3476 0.317452L13.491 3.38303C13.925 3.8063 13.925 4.49256 13.491 4.91583C13.057 5.3391 12.3533 5.3391 11.9193 4.91583L8.77595 1.85024C8.34194 1.42697 8.34194 0.74072 8.77595 0.317452Z" fill="white"/>
<path d="M8.77592 7.99899C9.20993 8.42225 9.9136 8.42225 10.3476 7.99899L13.491 4.9334C13.925 4.51013 13.925 3.82388 13.491 3.40061C13.057 2.97734 12.3533 2.97734 11.9193 3.40061L8.77592 6.46619C8.34191 6.88946 8.34191 7.57572 8.77592 7.99899Z" fill="white"/>
</svg>
