<svg width="17" height="20" viewBox="0 0 17 20" fill="none" xmlns="http://www.w3.org/2000/svg">
<path fill-rule="evenodd" clip-rule="evenodd" d="M0.909091 8.18188C1.41117 8.18188 1.81818 8.5889 1.81818 9.09098V17.2728C1.81818 17.5139 1.91396 17.7451 2.08445 17.9156C2.25494 18.0861 2.48617 18.1819 2.72727 18.1819H13.6364C13.8775 18.1819 14.1087 18.0861 14.2792 17.9156C14.4497 17.7451 14.5455 17.5139 14.5455 17.2728V9.09098C14.5455 8.5889 14.9525 8.18188 15.4545 8.18188C15.9566 8.18188 16.3636 8.5889 16.3636 9.09098V17.2728C16.3636 17.9961 16.0763 18.6898 15.5648 19.2013C15.0534 19.7127 14.3597 20.0001 13.6364 20.0001H2.72727C2.00395 20.0001 1.31026 19.7127 0.7988 19.2013C0.287337 18.6898 0 17.9961 0 17.2728V9.09098C0 8.5889 0.407014 8.18188 0.909091 8.18188Z" fill="#746B65"/>
<path fill-rule="evenodd" clip-rule="evenodd" d="M7.5391 0.266267C7.89413 -0.0887555 8.46973 -0.0887555 8.82475 0.266267L12.4611 3.90263C12.8161 4.25765 12.8161 4.83326 12.4611 5.18828C12.1061 5.5433 11.5305 5.5433 11.1755 5.18828L8.18193 2.19474L5.18839 5.18828C4.83337 5.5433 4.25776 5.5433 3.90274 5.18828C3.54772 4.83326 3.54772 4.25765 3.90274 3.90263L7.5391 0.266267Z" fill="#746B65"/>
<path fill-rule="evenodd" clip-rule="evenodd" d="M8.1818 0C8.68387 0 9.09089 0.407014 9.09089 0.909091V12.7273C9.09089 13.2294 8.68387 13.6364 8.1818 13.6364C7.67972 13.6364 7.27271 13.2294 7.27271 12.7273V0.909091C7.27271 0.407014 7.67972 0 8.1818 0Z" fill="#746B65"/>
</svg>
