<svg width="23" height="20" viewBox="0 0 23 20" fill="none" xmlns="http://www.w3.org/2000/svg">
<path d="M10.6608 3.31084C10.6608 2.69772 11.1578 2.20068 11.7709 2.20068H21.7623C22.3754 2.20068 22.8724 2.69772 22.8724 3.31084C22.8724 3.92396 22.3754 4.42099 21.7623 4.42099H11.7709C11.1578 4.42099 10.6608 3.92396 10.6608 3.31084Z" fill="white"/>
<path fill-rule="evenodd" clip-rule="evenodd" d="M9.23733 0.325156C9.67087 0.758698 9.67087 1.46161 9.23733 1.89515L5.31235 5.82013C4.87881 6.25367 4.1759 6.25367 3.74236 5.82013L1.77987 3.85764C1.34633 3.4241 1.34633 2.72119 1.77987 2.28765C2.21341 1.85411 2.91632 1.85411 3.34986 2.28765L4.52735 3.46514L7.66734 0.325156C8.10088 -0.108385 8.80379 -0.108385 9.23733 0.325156Z" fill="white"/>
<path d="M10.6606 9.97172C10.6606 9.3586 11.1577 8.86157 11.7708 8.86157H21.7622C22.3753 8.86157 22.8723 9.3586 22.8723 9.97172C22.8723 10.5848 22.3753 11.0819 21.7622 11.0819H11.7708C11.1577 11.0819 10.6606 10.5848 10.6606 9.97172Z" fill="white"/>
<path fill-rule="evenodd" clip-rule="evenodd" d="M9.23699 6.98601C9.67053 7.41955 9.67053 8.12246 9.23699 8.556L5.31201 12.481C4.87847 12.9145 4.17556 12.9145 3.74202 12.481L1.77952 10.5185C1.34598 10.085 1.34598 9.38204 1.77952 8.9485C2.21307 8.51496 2.91598 8.51496 3.34952 8.9485L4.52701 10.126L7.667 6.98601C8.10054 6.55247 8.80345 6.55247 9.23699 6.98601Z" fill="white"/>
<path d="M10.6608 17.1656C10.6608 16.5525 11.1578 16.0554 11.7709 16.0554H21.7623C22.3754 16.0554 22.8724 16.5525 22.8724 17.1656C22.8724 17.7787 22.3754 18.2757 21.7623 18.2757H11.7709C11.1578 18.2757 10.6608 17.7787 10.6608 17.1656Z" fill="white"/>
<path fill-rule="evenodd" clip-rule="evenodd" d="M9.23697 14.1799C9.67051 14.6134 9.67051 15.3163 9.23697 15.7499L5.31199 19.6749C4.87844 20.1084 4.17553 20.1084 3.74199 19.6749L1.7795 17.7124C1.34596 17.2788 1.34596 16.5759 1.7795 16.1424C2.21304 15.7088 2.91595 15.7088 3.34949 16.1424L4.52699 17.3199L7.66697 14.1799C8.10051 13.7464 8.80342 13.7464 9.23697 14.1799Z" fill="white"/>
</svg>
