<svg width="22" height="20" viewBox="0 0 22 20" fill="none" xmlns="http://www.w3.org/2000/svg">
<path d="M9.66626 3.31084C9.66626 2.69772 10.1633 2.20068 10.7764 2.20068H20.7678C21.3809 2.20068 21.8779 2.69772 21.8779 3.31084C21.8779 3.92396 21.3809 4.42099 20.7678 4.42099H10.7764C10.1633 4.42099 9.66626 3.92396 9.66626 3.31084Z" fill="white"/>
<path fill-rule="evenodd" clip-rule="evenodd" d="M8.24283 0.325156C8.67637 0.758698 8.67637 1.46161 8.24283 1.89515L4.31784 5.82013C3.8843 6.25367 3.18139 6.25367 2.74785 5.82013L0.785361 3.85764C0.35182 3.4241 0.35182 2.72119 0.785361 2.28765C1.2189 1.85411 1.92181 1.85411 2.35535 2.28765L3.53285 3.46514L6.67283 0.325156C7.10637 -0.108385 7.80928 -0.108385 8.24283 0.325156Z" fill="white"/>
<path d="M9.66614 9.97172C9.66614 9.3586 10.1632 8.86157 10.7763 8.86157H20.7677C21.3808 8.86157 21.8778 9.3586 21.8778 9.97172C21.8778 10.5848 21.3808 11.0819 20.7677 11.0819H10.7763C10.1632 11.0819 9.66614 10.5848 9.66614 9.97172Z" fill="white"/>
<path fill-rule="evenodd" clip-rule="evenodd" d="M8.24248 6.98601C8.67602 7.41955 8.67602 8.12246 8.24248 8.556L4.3175 12.481C3.88396 12.9145 3.18105 12.9145 2.74751 12.481L0.785018 10.5185C0.351476 10.085 0.351476 9.38204 0.785017 8.9485C1.21856 8.51496 1.92147 8.51496 2.35501 8.9485L3.5325 10.126L6.67249 6.98601C7.10603 6.55247 7.80894 6.55247 8.24248 6.98601Z" fill="white"/>
<path d="M9.66626 17.1656C9.66626 16.5525 10.1633 16.0554 10.7764 16.0554H20.7678C21.3809 16.0554 21.8779 16.5525 21.8779 17.1656C21.8779 17.7787 21.3809 18.2757 20.7678 18.2757H10.7764C10.1633 18.2757 9.66626 17.7787 9.66626 17.1656Z" fill="white"/>
<path fill-rule="evenodd" clip-rule="evenodd" d="M8.24246 14.1799C8.676 14.6134 8.676 15.3163 8.24246 15.7499L4.31748 19.6749C3.88394 20.1084 3.18103 20.1084 2.74749 19.6749L0.784995 17.7124C0.351453 17.2788 0.351454 16.5759 0.784995 16.1424C1.21854 15.7088 1.92145 15.7088 2.35499 16.1424L3.53248 17.3199L6.67247 14.1799C7.10601 13.7464 7.80892 13.7464 8.24246 14.1799Z" fill="white"/>
</svg>
